<svg width="250" height="168" viewBox="0 0 250 168" fill="none" xmlns="http://www.w3.org/2000/svg">
<g clip-path="url(#clip0_5_28)">
<path d="M17.9372 34.6232C17.3044 37.3978 17.0036 40.5435 18.6914 43.0266C19.4088 44.0918 20.4617 44.8878 21.6834 45.2887C22.9199 45.6546 24.2238 45.7345 25.4959 45.5224C28.3747 45.1243 30.9332 43.6278 33.7644 43.0467C35.0138 42.7903 36.3398 42.7056 37.5425 43.199C38.4437 43.5688 39.3929 44.3122 39.3972 45.3726C39.4017 46.4615 38.4541 47.1842 37.5116 47.519C36.2541 47.9657 34.9473 47.7928 33.6429 47.7365C32.2381 47.6759 30.8057 47.8027 29.6387 48.6613C28.6349 49.4432 27.8652 50.4848 27.4131 51.6727C26.8265 53.0936 26.5885 54.6212 26.2134 56.1036C25.8781 57.4364 25.4039 58.7305 24.7984 59.9646C23.6104 62.3837 21.945 64.5382 19.9021 66.299C18.8945 67.1644 17.6703 68.046 16.2943 68.1253C15.233 68.1865 13.9429 67.7414 13.5338 66.6685C13.3818 66.2053 13.3967 65.7037 13.5758 65.2502C13.755 64.7968 14.0872 64.42 14.515 64.185C15.4246 63.7269 16.4152 64.3804 16.7089 65.2773C16.7859 65.484 16.8129 65.706 16.7875 65.9252C16.7621 66.1443 16.6852 66.3543 16.5629 66.5381C16.2872 66.9485 16.9515 67.3323 17.2255 66.9246C17.8615 65.978 17.5291 64.7049 16.7501 63.9467C16.3701 63.56 15.8621 63.3246 15.3209 63.2843C14.7797 63.2441 14.2423 63.4017 13.809 63.7279C13.3589 64.07 13.0186 64.5358 12.8299 65.0681C12.6412 65.6004 12.6123 66.1761 12.7468 66.7246C13.074 67.9031 14.2343 68.6527 15.3929 68.8384C16.8237 69.0677 18.2006 68.5065 19.3556 67.6957C20.5144 66.8609 21.568 65.8895 22.4936 64.8027C24.3754 62.6429 25.7901 60.1184 26.6489 57.3875C27.4935 54.6865 27.5549 51.1184 30.0644 49.2942C31.3558 48.3556 32.938 48.4597 34.4521 48.5458C35.7886 48.6219 37.0924 48.6081 38.3185 48.0042C39.3309 47.5056 40.1478 46.5852 40.1647 45.4126C40.1817 44.2289 39.3396 43.2771 38.3475 42.7378C35.7264 41.3131 32.5788 42.4621 30.0038 43.4139C27.4144 44.3711 24.4579 45.4945 21.7059 44.4873C20.4358 43.9947 19.4133 43.0195 18.8624 41.7756C18.196 40.3652 18.1012 38.7648 18.2552 37.2342C18.3459 36.4238 18.4868 35.6198 18.6771 34.8268C18.7865 34.3469 18.0469 34.1421 17.9372 34.6232L17.9372 34.6232Z" fill="#3F3D56"/>
<path d="M58.6768 67.0215C54.9594 66.7284 59.3458 64.2732 59.6395 60.5631C59.7089 59.6806 59.9518 58.8204 60.3544 58.0317C60.757 57.2429 61.3114 56.541 61.9859 55.9662C62.6603 55.3913 63.4417 54.9547 64.2852 54.6813C65.1288 54.4079 66.0181 54.303 66.9023 54.3728C67.7865 54.4425 68.6483 54.6854 69.4384 55.0876C70.2285 55.4898 70.9315 56.0434 71.5071 56.7168C72.0828 57.3903 72.5199 58.1703 72.7934 59.0124C73.0669 59.8545 73.1715 60.7421 73.1012 61.6245C72.8075 65.3345 62.3941 67.3146 58.6768 67.0215Z" fill="#F0F0F0"/>
<path d="M94.3693 43.9238C92.5842 43.783 90.9282 42.9403 89.7656 41.581C88.6031 40.2216 88.0292 38.457 88.1702 36.6754C88.4638 32.9653 81.0818 30.4835 84.7991 30.7766C88.5165 31.0697 101.926 34.0267 101.632 37.7368C101.562 38.6189 101.319 39.4788 100.916 40.2671C100.513 41.0555 99.9589 41.7569 99.2845 42.3315C98.6101 42.906 97.8289 43.3423 96.9856 43.6155C96.1422 43.8887 95.2532 43.9935 94.3693 43.9238H94.3693Z" fill="#F0F0F0"/>
<path d="M102.506 35.4667C102.996 36.4809 102.707 37.6528 102.06 38.5285C101.324 39.5245 100.153 40.0155 98.9526 40.1778C97.6638 40.3339 96.3566 40.2265 95.1107 39.8621C93.9089 39.5159 92.6616 38.7739 92.4137 37.4482C92.2484 36.5647 92.6261 35.6218 93.5454 35.3769C93.9141 35.2839 94.3007 35.2872 94.6677 35.3866C95.0348 35.486 95.37 35.6781 95.641 35.9444C96.4044 36.7373 96.3463 38.01 95.8611 38.9309C95.2906 40.0141 94.1489 40.6119 92.9751 40.8091C91.5795 41.0436 90.1772 40.7161 88.8643 40.25C87.4374 39.7434 86.0532 39.1126 84.655 38.5331C81.9285 37.403 79.1433 36.3415 76.2112 35.8914C71.7322 35.2039 66.4165 36.2745 63.6746 40.1936C62.1945 42.3092 61.7752 44.9625 62.0937 47.4866C62.4297 50.1485 63.6 52.5946 65.1496 54.7608C65.9701 55.8875 66.8661 56.9576 67.8313 57.9636C68.1455 58.2686 68.3618 58.6599 68.4526 59.0878C68.5435 59.5157 68.5048 59.9609 68.3415 60.3668C67.4921 62.4498 64.0959 61.786 63.8428 59.6388C63.7279 58.6632 64.2733 57.6584 64.9547 56.9966C65.7281 56.2747 66.7025 55.8036 67.7495 55.6453C69.9533 55.278 72.2827 56.0935 73.9673 57.51C75.8703 59.1102 76.9417 61.5421 77.506 63.9094C78.1485 66.6047 78.1812 69.3768 78.2423 72.1319C78.3048 74.9513 78.4122 77.8041 79.2226 80.5254C79.8817 82.7156 80.8991 84.782 82.2338 86.641C84.8993 90.3862 88.6887 93.1888 93.0545 94.6441C94.1106 94.9862 95.1935 95.2394 96.2919 95.401C96.7219 95.4647 96.7733 94.7926 96.3451 94.7293C91.5571 94.0208 87.154 91.4335 84.002 87.7967C82.4224 85.9823 81.174 83.9054 80.3136 81.6604C79.2857 78.9564 79.0251 76.0842 78.9412 73.2144C78.8555 70.2835 78.9021 67.326 78.3142 64.4387C77.7944 61.8863 76.7748 59.3016 74.8867 57.4419C74.0476 56.6078 73.0478 55.9521 71.9477 55.5146C70.8476 55.0771 69.67 54.8668 68.4861 54.8964C66.2958 54.9977 63.9538 56.2017 63.3029 58.4321C63.1349 58.9391 63.1103 59.4825 63.2319 60.0026C63.3536 60.5227 63.6167 60.9991 63.9923 61.3794C64.4488 61.8115 65.0162 62.109 65.6317 62.2388C66.2471 62.3686 66.8866 62.3257 67.4792 62.1149C68.123 61.837 68.6402 61.3299 68.9301 60.6924C69.22 60.0549 69.2618 59.3326 69.0475 58.666C68.8674 58.1765 68.5778 57.7344 68.2009 57.3734C66.225 55.2674 64.4117 52.9106 63.4278 50.1683C62.51 47.6105 62.3218 44.6681 63.3802 42.123C65.3839 37.3048 71.1992 35.857 75.9361 36.5304C79.0361 36.9711 81.9714 38.1425 84.843 39.3407C86.3093 39.9526 87.7663 40.6325 89.287 41.1009C90.6486 41.5202 92.1097 41.7308 93.5126 41.3869C94.7369 41.0867 95.8623 40.3762 96.4554 39.2396C96.9941 38.2072 97.0871 36.8972 96.4464 35.8857C95.5201 34.4234 92.9623 34.0944 92.0302 35.7369C91.4118 36.8267 91.7156 38.2223 92.5279 39.1262C93.4385 40.1395 94.8022 40.5534 96.1072 40.7623C98.5732 41.1571 101.61 40.8468 102.929 38.4159C103.216 37.9291 103.382 37.3809 103.415 36.817C103.447 36.2531 103.344 35.6896 103.114 35.1735C103.073 35.0961 103.004 35.0375 102.92 35.0102C102.837 34.9828 102.747 34.9888 102.668 35.0268C102.589 35.0649 102.528 35.132 102.498 35.2141C102.467 35.2961 102.47 35.3867 102.506 35.4667L102.506 35.4667Z" fill="#3F3D56"/>
<path d="M248.513 55.024C252.23 54.7309 247.844 52.2757 247.55 48.5656C247.48 47.6834 247.237 46.8236 246.834 46.0353C246.431 45.2469 245.877 44.5454 245.203 43.9709C244.528 43.3964 243.747 42.9601 242.904 42.6869C242.06 42.4137 241.171 42.3089 240.287 42.3786C239.404 42.4483 238.542 42.6911 237.752 43.093C236.962 43.495 236.259 44.0483 235.684 44.7214C234.521 46.0807 233.947 47.8453 234.088 49.627C234.382 53.337 244.795 55.3171 248.513 55.024Z" fill="#F0F0F0"/>
<path d="M212.82 31.9263C214.605 31.7855 216.261 30.9428 217.424 29.5834C218.586 28.2241 219.16 26.4595 219.019 24.6779C218.726 20.9678 226.108 18.486 222.39 18.7791C218.673 19.0722 205.264 22.0292 205.558 25.7393C205.627 26.6214 205.871 27.4812 206.273 28.2696C206.676 29.058 207.231 29.7594 207.905 30.3339C208.579 30.9085 209.361 31.3448 210.204 31.618C211.047 31.8912 211.936 31.996 212.82 31.9263Z" fill="#F0F0F0"/>
<path d="M204.684 23.4691C204.194 24.4834 204.483 25.6553 205.13 26.531C205.866 27.527 207.036 28.018 208.237 28.1803C209.526 28.3364 210.833 28.229 212.079 27.8646C213.281 27.5184 214.528 26.7764 214.776 25.4507C214.941 24.5672 214.563 23.6243 213.644 23.3794C213.275 23.2864 212.889 23.2897 212.522 23.3891C212.155 23.4885 211.82 23.6806 211.548 23.9468C210.785 24.7398 210.843 26.0125 211.328 26.9334C211.899 28.0166 213.041 28.6144 214.214 28.8116C215.61 29.0461 217.012 28.7185 218.325 28.2525C219.752 27.7459 221.136 27.115 222.534 26.5356C225.261 25.4055 228.046 24.344 230.978 23.8939C235.457 23.2064 240.773 24.2769 243.515 28.1961C244.995 30.3117 245.414 32.965 245.096 35.4891C244.76 38.151 243.59 40.5971 242.04 42.7632C241.219 43.89 240.323 44.96 239.358 45.9661C239.044 46.271 238.828 46.6623 238.737 47.0903C238.646 47.5182 238.685 47.9634 238.848 48.3693C239.697 50.4523 243.094 49.7885 243.347 47.6413C243.462 46.6657 242.916 45.6609 242.235 44.9991C241.461 44.2772 240.487 43.8061 239.44 43.6478C237.236 43.2805 234.907 44.096 233.222 45.5125C231.319 47.1127 230.248 49.5445 229.684 51.9119C229.041 54.6072 229.008 57.3793 228.947 60.1344C228.885 62.9538 228.777 65.8066 227.967 68.5278C227.308 70.7181 226.29 72.7845 224.956 74.6434C222.29 78.3887 218.501 81.1913 214.135 82.6466C213.079 82.9887 211.996 83.2419 210.898 83.4035C210.468 83.4671 210.416 82.7951 210.844 82.7317C215.632 82.0233 220.036 79.436 223.187 75.7992C224.767 73.9848 226.016 71.9079 226.876 69.6629C227.904 66.9589 228.164 64.0867 228.248 61.2169C228.334 58.286 228.287 55.3285 228.875 52.4412C229.395 49.8888 230.415 47.3041 232.303 45.4444C233.142 44.6102 234.142 43.9546 235.242 43.5171C236.342 43.0796 237.52 42.8693 238.703 42.8989C240.894 43.0002 243.236 44.2041 243.887 46.4345C244.055 46.9416 244.079 47.485 243.958 48.0051C243.836 48.5251 243.573 49.0016 243.197 49.3819C242.741 49.814 242.173 50.1115 241.558 50.2413C240.942 50.3711 240.303 50.3282 239.71 50.1174C239.067 49.8395 238.549 49.3324 238.259 48.6949C237.97 48.0574 237.928 47.3351 238.142 46.6684C238.322 46.179 238.612 45.7369 238.989 45.3759C240.965 43.2698 242.778 40.9131 243.762 38.1708C244.68 35.613 244.868 32.6706 243.809 30.1256C241.806 25.3073 235.99 23.8595 231.253 24.5329C228.153 24.9737 225.218 26.145 222.347 27.3432C220.88 27.9551 219.423 28.6351 217.903 29.1034C216.541 29.5227 215.08 29.7333 213.677 29.3894C212.453 29.0892 211.327 28.3787 210.734 27.2422C210.195 26.2097 210.102 24.8997 210.743 23.8882C211.67 22.4259 214.227 22.0969 215.159 23.7394C215.778 24.8293 215.474 26.2248 214.662 27.1287C213.751 28.142 212.387 28.5559 211.082 28.7648C208.616 29.1596 205.58 28.8494 204.26 26.4184C203.974 25.9316 203.807 25.3834 203.775 24.8195C203.743 24.2556 203.846 23.6921 204.076 23.176C204.117 23.0986 204.186 23.0401 204.269 23.0127C204.352 22.9854 204.443 22.9914 204.522 23.0294C204.601 23.0674 204.662 23.1346 204.692 23.2166C204.722 23.2987 204.719 23.3892 204.684 23.4692L204.684 23.4691Z" fill="#3F3D56"/>
<path d="M103.113 110.792C96.6296 102.25 99.2008 92.5009 95.4023 85.6996C80.8443 59.6329 98.7705 62.0344 119.038 67.1036L119.086 67.6659C106.187 69.6527 97.7033 76.2786 95.8111 85.8444C94.3405 93.2787 97.0391 101.995 103.41 110.389L103.113 110.792Z" fill="#F0F0F0"/>
<path d="M184.232 104.181L184.096 103.645C191.334 100.371 190.712 90.6169 197.187 88.3896C246.51 71.4225 197.822 69.5092 186.871 60.5344C177.078 52.5087 166.405 43.1777 152.841 38.3719L152.949 37.8248C166.572 42.6517 178.716 50.5633 187.144 60.1023C195.614 69.6892 199.326 79.7866 197.595 88.5343C196.231 95.4325 191.61 100.843 184.232 104.181Z" fill="#F0F0F0"/>
<path d="M122.062 46.8252C123.334 46.8252 124.365 46.1095 124.365 45.2265C124.365 44.3436 123.334 43.6278 122.062 43.6278C120.79 43.6278 119.759 44.3436 119.759 45.2265C119.759 46.1095 120.79 46.8252 122.062 46.8252Z" fill="#E6E6E6"/>
<path d="M136.679 50.4223C137.95 50.4223 138.981 49.7066 138.981 48.8236C138.981 47.9407 137.95 47.2249 136.679 47.2249C135.407 47.2249 134.376 47.9407 134.376 48.8236C134.376 49.7066 135.407 50.4223 136.679 50.4223Z" fill="#3F3D56"/>
<path d="M116.255 58.216C117.527 58.216 118.558 57.5003 118.558 56.6173C118.558 55.7344 117.527 55.0186 116.255 55.0186C114.984 55.0186 113.953 55.7344 113.953 56.6173C113.953 57.5003 114.984 58.216 116.255 58.216Z" fill="#F39F33"/>
<path d="M182.732 70.2063C184.003 70.2063 185.034 69.4906 185.034 68.6076C185.034 67.7247 184.003 67.0089 182.732 67.0089C181.46 67.0089 180.429 67.7247 180.429 68.6076C180.429 69.4906 181.46 70.2063 182.732 70.2063Z" fill="#E6E6E6"/>
<path d="M197.348 73.8034C198.62 73.8034 199.651 73.0877 199.651 72.2047C199.651 71.3218 198.62 70.606 197.348 70.606C196.077 70.606 195.046 71.3218 195.046 72.2047C195.046 73.0877 196.077 73.8034 197.348 73.8034Z" fill="#3F3D56"/>
<path d="M176.925 81.5971C178.197 81.5971 179.228 80.8813 179.228 79.9984C179.228 79.1155 178.197 78.3997 176.925 78.3997C175.653 78.3997 174.622 79.1155 174.622 79.9984C174.622 80.8813 175.653 81.5971 176.925 81.5971Z" fill="#F39F33"/>
<path d="M178.327 33.8358C179.598 33.8358 180.629 33.12 180.629 32.2371C180.629 31.3541 179.598 30.6384 178.327 30.6384C177.055 30.6384 176.024 31.3541 176.024 32.2371C176.024 33.12 177.055 33.8358 178.327 33.8358Z" fill="#E6E6E6"/>
<path d="M192.943 37.4328C194.215 37.4328 195.246 36.7171 195.246 35.8341C195.246 34.9512 194.215 34.2354 192.943 34.2354C191.672 34.2354 190.641 34.9512 190.641 35.8341C190.641 36.7171 191.672 37.4328 192.943 37.4328Z" fill="#3F3D56"/>
<path d="M172.52 45.2266C173.792 45.2266 174.823 44.5108 174.823 43.6278C174.823 42.7449 173.792 42.0291 172.52 42.0291C171.248 42.0291 170.217 42.7449 170.217 43.6278C170.217 44.5108 171.248 45.2266 172.52 45.2266Z" fill="#F39F33"/>
<path d="M139.452 101.539C140.255 101.539 140.907 101.087 140.907 100.529C140.907 99.9709 140.255 99.5185 139.452 99.5185C138.648 99.5185 137.996 99.9709 137.996 100.529C137.996 101.087 138.648 101.539 139.452 101.539Z" fill="#E6E6E6"/>
<path d="M148.69 103.813C149.493 103.813 150.145 103.36 150.145 102.802C150.145 102.244 149.493 101.792 148.69 101.792C147.886 101.792 147.234 102.244 147.234 102.802C147.234 103.36 147.886 103.813 148.69 103.813Z" fill="#3F3D56"/>
<path d="M135.782 108.738C136.586 108.738 137.237 108.286 137.237 107.728C137.237 107.17 136.586 106.717 135.782 106.717C134.978 106.717 134.327 107.17 134.327 107.728C134.327 108.286 134.978 108.738 135.782 108.738Z" fill="#F39F33"/>
<path d="M136.248 67.5668C137.052 67.5668 137.703 67.1144 137.703 66.5564C137.703 65.9984 137.052 65.546 136.248 65.546C135.444 65.546 134.793 65.9984 134.793 66.5564C134.793 67.1144 135.444 67.5668 136.248 67.5668Z" fill="#E6E6E6"/>
<path d="M145.486 69.8401C146.29 69.8401 146.941 69.3878 146.941 68.8297C146.941 68.2717 146.29 67.8194 145.486 67.8194C144.682 67.8194 144.031 68.2717 144.031 68.8297C144.031 69.3878 144.682 69.8401 145.486 69.8401Z" fill="#3F3D56"/>
<path d="M132.578 74.7657C133.382 74.7657 134.034 74.3134 134.034 73.7553C134.034 73.1973 133.382 72.745 132.578 72.745C131.775 72.745 131.123 73.1973 131.123 73.7553C131.123 74.3134 131.775 74.7657 132.578 74.7657Z" fill="#F39F33"/>
<path d="M90.1951 73.5619C90.9989 73.5619 91.6504 73.1096 91.6504 72.5515C91.6504 71.9935 90.9989 71.5411 90.1951 71.5411C89.3914 71.5411 88.7399 71.9935 88.7399 72.5515C88.7399 73.1096 89.3914 73.5619 90.1951 73.5619Z" fill="#E6E6E6"/>
<path d="M99.4329 75.8353C100.237 75.8353 100.888 75.3829 100.888 74.8249C100.888 74.2669 100.237 73.8145 99.4329 73.8145C98.6292 73.8145 97.9777 74.2669 97.9777 74.8249C97.9777 75.3829 98.6292 75.8353 99.4329 75.8353Z" fill="#3F3D56"/>
<path d="M86.5253 80.7609C87.329 80.7609 87.9806 80.3085 87.9806 79.7505C87.9806 79.1925 87.329 78.7401 86.5253 78.7401C85.7216 78.7401 85.07 79.1925 85.07 79.7505C85.07 80.3085 85.7216 80.7609 86.5253 80.7609Z" fill="#F39F33"/>
<path d="M203.726 47.7828C204.529 47.7828 205.181 47.3304 205.181 46.7724C205.181 46.2144 204.529 45.762 203.726 45.762C202.922 45.762 202.27 46.2144 202.27 46.7724C202.27 47.3304 202.922 47.7828 203.726 47.7828Z" fill="#E6E6E6"/>
<path d="M212.963 50.0561C213.767 50.0561 214.419 49.6038 214.419 49.0458C214.419 48.4877 213.767 48.0354 212.963 48.0354C212.16 48.0354 211.508 48.4877 211.508 49.0458C211.508 49.6038 212.16 50.0561 212.963 50.0561Z" fill="#3F3D56"/>
<path d="M200.056 54.9818C200.86 54.9818 201.511 54.5294 201.511 53.9714C201.511 53.4133 200.86 52.961 200.056 52.961C199.252 52.961 198.601 53.4133 198.601 53.9714C198.601 54.5294 199.252 54.9818 200.056 54.9818Z" fill="#F39F33"/>
<path d="M22.9891 43.0703C23.3282 43.1177 23.6528 43.2388 23.94 43.4249C24.2271 43.611 24.4699 43.8577 24.6512 44.1476C24.8325 44.4375 24.9479 44.7636 24.9893 45.1028C25.0307 45.4421 24.997 45.7862 24.8907 46.1111L34.5177 65.1917L30.4167 66.4116L21.7699 47.5767C21.235 47.3623 20.7974 46.9595 20.5401 46.4446C20.2828 45.9297 20.2237 45.3385 20.374 44.783C20.5243 44.2276 20.8735 43.7464 21.3555 43.4308C21.8375 43.1151 22.4188 42.9869 22.9892 43.0703H22.9891Z" fill="#F39F33"/>
<path d="M38.6455 75.4914C38.6455 75.4914 39.8388 75.1649 38.6586 72.8287C37.7138 70.9583 33.0251 58.9338 31.0715 56.7761C31.3041 56.441 31.4184 56.0383 31.3964 55.6313C31.3743 55.2243 31.2173 54.8361 30.9499 54.528L26.031 58.0541C25.8748 59.4147 26.4944 60.4707 27.033 60.4503L28.5269 63.9273L32.3411 75.8736L37.7872 75.7427L38.6455 75.4914Z" fill="#F39F33"/>
<path d="M37.1077 81.9831L37.587 86.4202L37.3049 92.2382L50.2173 90.7071L51.4306 81.9831L49.8848 81.9984L37.1077 81.9831Z" fill="#F39F33"/>
<path d="M48.0909 67.652L43.2314 63.823L40.6804 63.6749L36.8953 66.0951L33.722 67.7078L33.7764 76.1285L37.4248 91.2074L50.4689 90.6969L52.1858 79.9442C52.1858 79.9442 56.1746 74.5973 51.879 71.5351L48.0909 67.652Z" fill="#F39F33"/>
<path d="M30.4102 162.539H33.2333L34.5766 151.671H30.4102V162.539Z" fill="#F39F33"/>
<path d="M29.4888 160.609L33.999 160.34V162.269L38.287 165.224C38.4988 165.37 38.6583 165.58 38.7422 165.823C38.8262 166.066 38.8301 166.329 38.7535 166.574C38.6769 166.819 38.5238 167.034 38.3165 167.186C38.1091 167.338 37.8585 167.42 37.6011 167.42H32.2316L31.306 165.513L30.9447 167.42H28.9201L29.4888 160.609Z" fill="#2F2E41"/>
<path d="M46.2677 162.539H49.0909L50.4342 151.671H46.2677V162.539Z" fill="#F39F33"/>
<path d="M45.3464 160.609L49.8566 160.34V162.269L54.1445 165.224C54.3563 165.37 54.5158 165.58 54.5998 165.823C54.6837 166.066 54.6876 166.329 54.6111 166.574C54.5345 166.819 54.3813 167.034 54.174 167.186C53.9667 167.338 53.716 167.42 53.4586 167.42H48.0891L47.1636 165.513L46.8022 167.42H44.7777L45.3464 160.609Z" fill="#2F2E41"/>
<path d="M29.1921 153.167H29.2228L29.7658 135.496C29.4144 134.82 29.2361 134.067 29.2467 133.306C29.2573 132.544 29.4565 131.796 29.8265 131.13L29.9042 130.99L29.7027 130.057C29.4438 128.859 29.5626 127.611 30.0428 126.483L30.5493 110C28.7397 98.2953 37.3634 90.6622 37.3634 90.6622H50.2817L53.0551 100.172C54.8886 118 54.5559 135.373 51.6464 152.204L51.7258 152.244C52.0114 152.343 52.1339 152.738 51.9994 153.126C51.865 153.515 51.5245 153.751 51.2389 153.652L44.4165 153.415C44.1309 153.317 44.0084 152.922 44.1429 152.533C44.2773 152.145 44.6178 151.909 44.9034 152.008L45.3673 152.242L44.378 135.19L44.4878 132.076L44.2616 128.543L43.2159 112.65L39.2576 132.194L35.2144 153.363C35.3259 153.464 35.4041 153.596 35.4388 153.743C35.4735 153.889 35.463 154.042 35.4087 154.182C35.3544 154.322 35.2588 154.442 35.1345 154.527C35.0103 154.611 34.8633 154.656 34.7128 154.656H29.1921C28.9943 154.656 28.8045 154.578 28.6646 154.438C28.5247 154.298 28.4461 154.109 28.4461 153.911C28.4461 153.714 28.5247 153.525 28.6646 153.385C28.8045 153.245 28.9943 153.167 29.1921 153.167Z" fill="#2F2E41"/>
<path d="M48.3136 104.258C48.5797 104.043 48.7952 103.772 48.9451 103.465C49.0949 103.157 49.1755 102.821 49.181 102.479C49.1865 102.138 49.1169 101.799 48.9771 101.487C48.8373 101.175 48.6306 100.897 48.3717 100.674L47.1439 79.4652L42.6166 80.4368L44.9405 101.024C44.593 101.483 44.4262 102.054 44.4718 102.627C44.5175 103.201 44.7723 103.738 45.1881 104.136C45.6039 104.535 46.1517 104.767 46.7277 104.79C47.3038 104.812 47.8681 104.623 48.3136 104.258H48.3136Z" fill="#F39F33"/>
<path d="M44.9752 68.4222C44.9752 68.4222 46.1662 68.0878 46.3622 70.6969C46.5191 72.7856 48.7153 85.5011 48.1564 88.3552C48.5288 88.5226 48.8348 88.8088 49.0263 89.1689C49.2177 89.5289 49.2837 89.9423 49.2138 90.3439L43.1775 89.8546C42.3407 88.7692 42.3259 87.5456 42.7978 87.2859L42.2811 83.538L39.3762 71.3396L44.1099 68.6487L44.9752 68.4222Z" fill="#F39F33"/>
<path d="M41.0562 63.2399C44.4288 63.2399 47.1629 60.5112 47.1629 57.1452C47.1629 53.7792 44.4288 51.0505 41.0562 51.0505C37.6836 51.0505 34.9496 53.7792 34.9496 57.1452C34.9496 60.5112 37.6836 63.2399 41.0562 63.2399Z" fill="#F39F33"/>
<path d="M27.8969 69.9538C26.6046 69.4967 25.3124 69.0388 24.0201 68.5801C24.2428 68.2071 24.5265 67.8739 24.8593 67.5942C26.0897 66.5689 27.788 66.3836 29.3501 66.0377C30.9146 65.6918 32.6129 64.9827 33.1848 63.4903C33.7789 61.9387 32.9174 60.2636 32.4173 58.6823C31.7167 56.4759 31.7316 54.0126 32.6698 51.8976C33.6081 49.7826 35.5143 48.0679 37.777 47.5639C40.0397 47.0624 42.597 47.8802 43.9882 49.7283C44.8846 49.4599 45.8484 49.5284 46.6977 49.9208C47.5469 50.3132 48.2228 51.0023 48.5978 51.8581C48.9221 52.6685 48.932 53.6444 48.4493 54.3733C47.9665 55.1022 46.9342 55.4753 46.1569 55.07L46.6074 53.9286C45.2136 54.4005 44.3076 56.9157 44.4957 58.3734C44.6814 59.8287 45.533 61.1036 46.397 62.292C47.261 63.4804 48.1819 64.6812 48.5532 66.1019C49.088 68.1452 48.3651 70.3787 47.0283 72.0169C45.6914 73.655 43.8075 74.7668 41.8568 75.5846C40.3965 76.1974 38.879 76.6641 37.3264 76.9781C37.6037 76.4395 37.8785 75.9009 38.1557 75.3623L34.8657 77.3487C34.2295 77.4105 33.5883 77.4476 32.9471 77.4599C31.0805 77.492 29.1768 77.2968 27.4686 76.5532C25.758 75.807 24.2553 74.4555 23.6364 72.6988C23.438 72.1306 23.3441 71.5313 23.3592 70.9297C24.8717 70.6036 26.3843 70.2783 27.8969 69.9538Z" fill="#2F2E41"/>
<path d="M31.9776 16.5987C31.9776 8.13993 25.7529 0 18.1251 0C10.4972 0 4.35481 8.13993 4.35481 16.5987C4.35481 24.0261 9.12293 30.2171 15.4496 31.6168C15.088 32.6587 14.883 33.7483 14.8412 34.8502C14.8412 37.1764 16.1475 34.9715 18.1251 34.9715C20.1026 34.9715 22.0027 37.1764 22.0027 34.8502C21.9577 33.7072 21.7391 32.5775 21.3544 31.4999C27.4444 29.9033 31.9776 23.84 31.9776 16.5987Z" fill="#F39F33"/>
<path d="M15.251 31.9695L21.2435 32.1039C21.7375 32.115 21.7373 31.3492 21.2435 31.3381L15.251 31.2037C14.757 31.1927 14.7572 31.9585 15.251 31.9695Z" fill="#3F3D56"/>
<path d="M76.481 167.461C76.2848 168.041 0.211747 167.987 0 167.408C0.196017 166.826 76.269 166.881 76.481 167.461Z" fill="#CCCCCC"/>
<path d="M110.365 106.357C106.818 106.138 103.268 105.963 99.7179 105.805C97.3254 105.699 94.9307 105.611 92.541 105.45C91.7024 105.394 90.8635 105.326 90.0294 105.221C89.8108 105.189 89.5913 105.153 89.3736 105.108C89.4056 105.069 89.4371 105.029 89.4696 104.99C89.6411 104.783 89.8176 104.579 89.9965 104.379C90.9429 103.316 91.9452 102.302 92.9331 101.278C94.3259 99.8341 95.7078 98.3799 97.0563 96.8945C98.8096 94.9632 100.507 92.983 102.148 90.9539C102.612 90.3787 103.072 89.7996 103.526 89.2168C103.845 88.8089 104.161 88.3999 104.476 87.9896C104.595 87.8348 104.713 87.6798 104.832 87.5245C104.887 87.4522 104.942 87.3799 104.996 87.3074C105.05 87.2363 105.286 86.9282 105.115 87.1482C105.216 87.0177 105.317 86.8872 105.418 86.7566C105.486 86.6679 105.554 86.579 105.622 86.4898C105.777 86.2845 105.929 86.0773 106.079 85.8681C106.35 85.4906 106.611 85.1069 106.863 84.7168C107.341 83.9788 107.78 83.2169 108.179 82.4341C109.669 79.506 110.643 76.2691 110.623 72.9633C110.636 70.1885 109.868 67.4658 108.407 65.1048C106.992 62.8694 104.943 61.1037 102.521 60.0314C101.112 59.4239 99.6222 59.023 98.0979 58.8413C96.6141 58.6791 95.1153 58.7135 93.6405 58.9435C90.2552 59.4118 87.0088 60.855 84.1693 62.7186C83.2642 63.3127 82.3991 63.9618 81.5487 64.6311C81.1893 64.9139 80.9868 65.5514 80.9868 65.9848C80.9905 66.4919 81.192 66.9775 81.5487 67.3386C81.9091 67.6965 82.3966 67.8981 82.9051 67.8993C83.4076 67.8702 83.8855 67.6726 84.2615 67.3386C84.3009 67.3076 84.3407 67.2765 84.3804 67.2454C84.5001 67.1545 84.6205 67.0644 84.7415 66.9752C84.9967 66.787 85.2548 66.6027 85.5157 66.4223C86.0324 66.0651 86.5604 65.7248 87.0995 65.4013C88.0287 64.8448 88.9928 64.3486 89.9859 63.9157C91.4218 63.3247 92.9228 62.9058 94.4575 62.6678C95.5947 62.5339 96.7433 62.5271 97.8821 62.6474C98.8863 62.7973 99.8697 63.0633 100.812 63.4401C101.243 63.6349 101.662 63.8549 102.067 64.0991C102.315 64.25 102.558 64.4101 102.795 64.5793C102.828 64.603 102.902 64.6581 102.965 64.7054C103.025 64.754 103.085 64.8034 103.144 64.8533C103.575 65.2183 103.979 65.6148 104.352 66.0395C104.44 66.1395 104.526 66.241 104.61 66.344C104.623 66.3595 104.635 66.3752 104.648 66.3909C104.811 66.6104 104.965 66.8353 105.112 67.0657C105.412 67.5388 105.678 68.0324 105.908 68.5427C106.283 69.4816 106.547 70.4605 106.697 71.4601C106.817 72.593 106.811 73.7358 106.678 74.8673C106.442 76.3818 106.027 77.863 105.441 79.2797C104.759 80.8209 103.926 82.2912 102.955 83.6694C102.819 83.8633 102.681 84.0556 102.541 84.2462C102.475 84.3355 102.409 84.4243 102.343 84.5128C102.317 84.5471 102.23 84.6599 102.183 84.7215C102.08 84.8539 101.978 84.9859 101.877 85.1197C101.821 85.1926 101.766 85.2655 101.711 85.3386C101.584 85.5071 101.456 85.6753 101.327 85.8432C101.218 85.9854 101.11 86.1274 101 86.2692L100.996 86.2744C100.953 86.3297 100.91 86.385 100.867 86.4402C100.637 86.736 100.405 87.0309 100.172 87.3248C98.5018 89.4315 96.7687 91.4863 94.9728 93.4892C93.5762 95.0482 92.1423 96.573 90.6914 98.0815C89.6487 99.1655 88.59 100.236 87.576 101.347C86.8584 102.133 86.0873 102.958 85.5837 103.902C85.0437 104.914 84.8294 106.133 85.4967 107.15C86.1328 108.119 87.2437 108.565 88.3392 108.793C89.766 109.057 91.2094 109.222 92.6591 109.287C94.7429 109.425 96.8305 109.506 98.9166 109.598C101.874 109.729 104.83 109.867 107.786 110.033C108.646 110.082 109.505 110.133 110.365 110.186C111.369 110.247 112.328 109.261 112.283 108.271C112.272 107.767 112.066 107.286 111.709 106.93C111.352 106.573 110.87 106.368 110.365 106.357Z" fill="#2F2E41"/>
<path d="M154.272 68.6522C154.22 66.2423 154.022 63.8378 153.682 61.4515C153.384 59.2581 152.951 57.0851 152.386 54.9447C151.824 52.8264 151.1 50.7542 150.22 48.7465C149.543 47.1429 148.677 45.6251 147.642 44.2247C146.616 42.8761 145.436 41.6041 143.921 40.7938C143.27 40.4322 142.567 40.1717 141.838 40.0211C141.737 40.0024 141.638 39.9896 141.539 39.9805C141.47 39.9688 141.4 39.9592 141.328 39.9528C139.175 39.7396 137.003 40.0406 134.99 40.8308C132.987 41.6401 131.196 42.8949 129.752 44.4998C128.333 46.1052 127.186 47.9311 126.357 49.9053C125.434 52.0599 124.767 54.3144 124.368 56.6232C123.938 59.0864 123.737 61.5838 123.766 64.0838C123.802 66.6045 124.057 69.1172 124.528 71.5938C124.94 73.8346 125.577 76.0285 126.428 78.1424C127.237 80.2303 128.322 82.2006 129.655 84.001C130.992 85.7432 132.549 87.2967 134.465 88.4068C135.384 88.9392 136.364 89.3595 137.383 89.6586C138.276 89.952 139.188 90.1815 140.113 90.3455C141.079 90.5101 142.064 90.5464 143.04 90.4533C144.085 90.3365 145.107 90.0635 146.071 89.6435C147.728 88.927 149.047 87.6713 150.128 86.2554C151.211 84.7657 152.047 83.1122 152.605 81.3581C153.258 79.3449 153.705 77.271 153.939 75.1679C154.207 73.0068 154.318 70.8292 154.272 68.6522ZM150.346 72.6255C150.289 73.4998 150.204 74.3716 150.09 75.2409C149.855 76.966 149.461 78.6658 148.913 80.3185C148.789 80.6813 148.652 81.0395 148.508 81.3948C148.099 82.3508 147.587 83.2593 146.98 84.1039L146.972 84.1149C146.911 84.1906 146.85 84.2665 146.787 84.3405C146.627 84.528 146.46 84.7093 146.287 84.8846C146.112 85.0604 145.931 85.2289 145.742 85.39C145.694 85.431 145.645 85.4703 145.596 85.5097C145.572 85.527 145.548 85.5446 145.524 85.5615C144.756 86.138 143.853 86.5075 142.901 86.6342C142.243 86.6991 141.581 86.6939 140.925 86.6186C140.34 86.5234 139.762 86.388 139.196 86.2133C138.615 86.0343 138.029 85.8605 137.462 85.6396C136.842 85.3617 136.247 85.0307 135.684 84.6503C135.533 84.5477 135.385 84.4404 135.237 84.332C135.188 84.2927 135.139 84.2536 135.091 84.2136C134.781 83.9585 134.484 83.6904 134.197 83.4094C133.91 83.1289 133.635 82.8376 133.37 82.5354C133.23 82.376 133.094 82.2139 132.96 82.0493C132.918 81.9982 132.877 81.9466 132.836 81.895C132.325 81.2118 131.856 80.4977 131.433 79.7567C130.967 78.9399 130.548 78.098 130.176 77.2349C129.305 75.0964 128.654 72.8749 128.233 70.6048C128.118 69.9988 128.021 69.3897 127.934 68.7791C127.59 66.1128 127.511 63.4191 127.699 60.7374C127.75 60.0331 127.823 59.3308 127.913 58.6305C128.179 56.7068 128.627 54.8125 129.251 52.9729C129.409 52.5178 129.581 52.0683 129.764 51.623C130.333 50.2997 131.049 49.0448 131.9 47.8821C131.91 47.8681 131.926 47.8471 131.943 47.8243L131.955 47.8099C132.075 47.6604 132.198 47.5131 132.323 47.3682C132.551 47.1059 132.788 46.8521 133.035 46.6068C133.289 46.3543 133.554 46.1124 133.828 45.8812C133.889 45.8301 134.008 45.7379 134.095 45.671C134.17 45.6153 134.245 45.5584 134.322 45.5047C135.588 44.5883 137.063 44.0038 138.614 43.8049C139.424 43.718 140.24 43.7043 141.053 43.764C141.26 43.8124 141.464 43.8728 141.665 43.9449C142.07 44.1374 142.457 44.3667 142.821 44.6301C142.835 44.6417 142.849 44.6531 142.863 44.6648C142.974 44.7571 143.083 44.8519 143.189 44.9492C143.414 45.1553 143.63 45.3719 143.836 45.5963C144.041 45.8177 144.235 46.0475 144.424 46.2827C144.448 46.3147 144.472 46.3466 144.495 46.3789C144.595 46.5141 144.692 46.6508 144.787 46.7891C145.201 47.3935 145.582 48.0199 145.928 48.6653C146.302 49.3578 146.64 50.069 146.954 50.7908C148.134 53.7038 149.006 56.7321 149.555 59.8261C149.715 60.6864 149.852 61.5508 149.972 62.4175C150.426 65.8002 150.551 69.2187 150.346 72.6255Z" fill="#2F2E41"/>
<path d="M190.654 106.357C187.107 106.138 183.558 105.963 180.007 105.805C177.615 105.699 175.22 105.611 172.83 105.45C171.992 105.394 171.153 105.326 170.319 105.221C170.1 105.189 169.88 105.153 169.663 105.108C169.695 105.069 169.726 105.029 169.759 104.99C169.93 104.783 170.107 104.579 170.286 104.379C171.232 103.316 172.234 102.302 173.222 101.278C174.615 99.8341 175.997 98.3799 177.345 96.8945C179.099 94.9632 180.796 92.983 182.437 90.9539C182.901 90.3787 183.361 89.7997 183.816 89.2168C184.134 88.8089 184.45 88.3999 184.765 87.9896C184.884 87.8348 185.003 87.6798 185.121 87.5245C185.176 87.4522 185.231 87.3799 185.286 87.3074C185.339 87.2363 185.575 86.9282 185.404 87.1482C185.505 87.0177 185.606 86.8872 185.707 86.7566C185.775 86.6679 185.843 86.579 185.911 86.4898C186.066 86.2845 186.219 86.0773 186.369 85.8681C186.639 85.4906 186.9 85.1069 187.152 84.7168C187.63 83.9788 188.069 83.217 188.469 82.4341C189.958 79.506 190.933 76.2691 190.912 72.9633C190.925 70.1885 190.157 67.4658 188.696 65.1048C187.281 62.8694 185.233 61.1037 182.811 60.0314C181.401 59.4239 179.911 59.023 178.387 58.8413C176.903 58.6791 175.404 58.7135 173.93 58.9435C170.544 59.4118 167.298 60.8549 164.459 62.7186C163.553 63.3127 162.688 63.9618 161.838 64.6311C161.478 64.9139 161.276 65.5514 161.276 65.9848C161.28 66.4919 161.481 66.9775 161.838 67.3386C162.198 67.6965 162.686 67.8981 163.194 67.8993C163.697 67.8702 164.175 67.6726 164.551 67.3386C164.59 67.3076 164.63 67.2765 164.67 67.2454C164.789 67.1545 164.91 67.0644 165.031 66.9752C165.286 66.787 165.544 66.6027 165.805 66.4223C166.322 66.0651 166.85 65.7248 167.389 65.4013C168.318 64.8448 169.282 64.3486 170.275 63.9157C171.711 63.3247 173.212 62.9058 174.747 62.6678C175.884 62.5339 177.033 62.5271 178.171 62.6474C179.175 62.7973 180.159 63.0633 181.102 63.4401C181.532 63.6349 181.951 63.8549 182.356 64.0991C182.605 64.25 182.847 64.4101 183.084 64.5793C183.117 64.603 183.191 64.6581 183.254 64.7054C183.314 64.754 183.374 64.8034 183.433 64.8533C183.865 65.2183 184.269 65.6148 184.642 66.0395C184.729 66.1395 184.815 66.241 184.9 66.344C184.912 66.3595 184.925 66.3752 184.937 66.3909C185.1 66.6104 185.255 66.8353 185.402 67.0657C185.701 67.5388 185.967 68.0324 186.197 68.5427C186.572 69.4816 186.836 70.4606 186.986 71.4601C187.106 72.593 187.1 73.7358 186.967 74.8673C186.731 76.3818 186.317 77.8631 185.731 79.2798C185.048 80.8209 184.216 82.2912 183.244 83.6694C183.109 83.8633 182.971 84.0556 182.83 84.2463C182.765 84.3355 182.698 84.4243 182.632 84.5128C182.606 84.5471 182.52 84.66 182.473 84.7216C182.369 84.8539 182.267 84.9859 182.166 85.1197C182.111 85.1926 182.055 85.2656 182 85.3386C181.873 85.5071 181.745 85.6753 181.616 85.8433C181.508 85.9855 181.399 86.1275 181.289 86.2692L181.285 86.2745C181.243 86.3298 181.2 86.385 181.157 86.4402C180.926 86.7361 180.694 87.031 180.461 87.3249C178.791 89.4315 177.058 91.4863 175.262 93.4892C173.865 95.0482 172.432 96.573 170.981 98.0815C169.938 99.1656 168.879 100.236 167.865 101.347C167.148 102.133 166.377 102.958 165.873 103.902C165.333 104.914 165.119 106.133 165.786 107.15C166.422 108.119 167.533 108.565 168.628 108.793C170.055 109.057 171.499 109.222 172.948 109.287C175.032 109.425 177.12 109.506 179.206 109.598C182.163 109.729 185.12 109.867 188.075 110.033C188.935 110.082 189.795 110.133 190.654 110.186C191.658 110.247 192.617 109.261 192.573 108.271C192.561 107.767 192.355 107.286 191.998 106.93C191.641 106.573 191.159 106.368 190.654 106.357Z" fill="#2F2E41"/>
<path d="M230.588 80.631C227.041 80.4129 223.492 80.2372 219.941 80.0795C217.549 79.9732 215.154 79.886 212.764 79.7247C211.926 79.6681 211.087 79.601 210.253 79.4953C210.034 79.4632 209.814 79.4273 209.597 79.383C209.629 79.3434 209.66 79.3035 209.693 79.2643C209.864 79.0571 210.041 78.854 210.22 78.6531C211.166 77.5902 212.168 76.5767 213.156 75.5525C214.549 74.1086 215.931 72.6544 217.28 71.169C219.033 69.2377 220.73 67.2575 222.371 65.2284C222.835 64.6532 223.295 64.0742 223.75 63.4913C224.068 63.0835 224.384 62.6744 224.699 62.2641C224.818 62.1093 224.937 61.9543 225.055 61.799C225.11 61.7267 225.165 61.6544 225.22 61.582C225.273 61.5108 225.509 61.2027 225.338 61.4227C225.439 61.2923 225.54 61.1617 225.641 61.0311C225.709 60.9424 225.777 60.8535 225.845 60.7643C226 60.559 226.153 60.3518 226.303 60.1426C226.573 59.7652 226.834 59.3814 227.086 58.9913C227.564 58.2534 228.003 57.4915 228.403 56.7086C229.892 53.7805 230.867 50.5436 230.847 47.2378C230.859 44.463 230.091 41.7403 228.63 39.3793C227.215 37.1439 225.167 35.3782 222.745 34.3059C221.335 33.6984 219.845 33.2975 218.321 33.1158C216.837 32.9536 215.338 32.988 213.864 33.218C210.478 33.6863 207.232 35.1295 204.393 36.9931C203.487 37.5872 202.622 38.2363 201.772 38.9056C201.412 39.1885 201.21 39.8259 201.21 40.2594C201.214 40.7664 201.415 41.252 201.772 41.6131C202.132 41.9711 202.62 42.1726 203.128 42.1739C203.631 42.1447 204.109 41.9471 204.485 41.6131C204.524 41.5821 204.564 41.5511 204.604 41.5199C204.723 41.429 204.844 41.339 204.965 41.2497C205.22 41.0615 205.478 40.8772 205.739 40.6968C206.256 40.3396 206.784 39.9993 207.323 39.6759C208.252 39.1194 209.216 38.6231 210.209 38.1902C211.645 37.5992 213.146 37.1804 214.681 36.9423C215.818 36.8085 216.967 36.8016 218.105 36.922C219.11 37.0718 220.093 37.3378 221.036 37.7146C221.466 37.9094 221.885 38.1294 222.29 38.3737C222.539 38.5245 222.781 38.6846 223.018 38.8539C223.051 38.8776 223.125 38.9327 223.188 38.9799C223.248 39.0286 223.308 39.0779 223.367 39.1278C223.799 39.4928 224.203 39.8893 224.576 40.314C224.663 40.414 224.749 40.5155 224.834 40.6185C224.846 40.634 224.859 40.6498 224.871 40.6654C225.034 40.8849 225.189 41.1098 225.336 41.3402C225.635 41.8133 225.901 42.3069 226.131 42.8173C226.506 43.7561 226.771 44.7351 226.92 45.7346C227.04 46.8675 227.034 48.0103 226.901 49.1418C226.666 50.6563 226.251 52.1376 225.665 53.5543C224.982 55.0954 224.15 56.5657 223.178 57.9439C223.043 58.1378 222.905 58.3301 222.764 58.5208C222.699 58.61 222.632 58.6988 222.566 58.7873C222.54 58.8216 222.454 58.9345 222.407 58.996C222.303 59.1284 222.201 59.2604 222.1 59.3942C222.045 59.4671 221.989 59.5401 221.934 59.6131C221.807 59.7816 221.679 59.9498 221.55 60.1178C221.442 60.26 221.333 60.4019 221.223 60.5437L221.219 60.5489C221.177 60.6043 221.134 60.6595 221.091 60.7147C220.86 61.0106 220.628 61.3054 220.395 61.5994C218.725 63.706 216.992 65.7608 215.196 67.7637C213.799 69.3227 212.366 70.8475 210.915 72.356C209.872 73.4401 208.813 74.5104 207.799 75.6215C207.082 76.4078 206.31 77.2325 205.807 78.1765C205.267 79.1887 205.053 80.4072 205.72 81.4244C206.356 82.3939 207.467 82.8398 208.562 83.0675C209.989 83.3316 211.433 83.4967 212.882 83.5616C214.966 83.6993 217.054 83.7809 219.14 83.873C222.097 84.0035 225.054 84.1412 228.009 84.3079C228.869 84.3564 229.729 84.4071 230.588 84.46C231.592 84.5217 232.551 83.5353 232.507 82.5455C232.495 82.0413 232.29 81.5609 231.932 81.2043C231.575 80.8477 231.094 80.6423 230.588 80.631Z" fill="#2F2E41"/>
</g>
<defs>
<clipPath id="clip0_5_28">
<rect width="250" height="167.87" fill="white"/>
</clipPath>
</defs>
</svg>
